REM DIRINDEX 1\2,1\3,1\4
REM DIRNAME cjc085,folder01,folder02,folder03
TITLE ""
FILE "Disc2Track01.mp3" MP3
  TRACK 01 AUDIO
    TITLE "0:"
    INDEX 01 00:00:00
  TRACK 02 AUDIO
    TITLE "4:cjc085_0949"
    INDEX 01 00:00:21
  TRACK 03 AUDIO
    TITLE "2:cjc085_0950"
    INDEX 01 00:02:26
  TRACK 04 AUDIO
    TITLE "0:"
    INDEX 01 00:05:26
  TRACK 05 AUDIO
    TITLE "3:cjc085_0951"
    INDEX 01 00:05:38
  TRACK 06 AUDIO
    TITLE "0:"
    INDEX 01 00:07:64
  TRACK 07 AUDIO
    TITLE "4:cjc085_0952"
    INDEX 01 00:08:68
  TRACK 08 AUDIO
    TITLE "2:cjc085_0953"
    INDEX 01 00:10:72
  TRACK 09 AUDIO
    TITLE "0:"
    INDEX 01 00:13:57
  TRACK 10 AUDIO
    TITLE "3:cjc085_0954"
    INDEX 01 00:14:25
  TRACK 11 AUDIO
    TITLE "0:"
    INDEX 01 00:16:55
  TRACK 12 AUDIO
    TITLE "4:cjc085_0955"
    INDEX 01 00:18:29
  TRACK 13 AUDIO
    TITLE "2:cjc085_0956"
    INDEX 01 00:20:73
  TRACK 14 AUDIO
    TITLE "0:"
    INDEX 01 00:25:21
  TRACK 15 AUDIO
    TITLE "3:cjc085_0957"
    INDEX 01 00:26:13
  TRACK 16 AUDIO
    TITLE "0:"
    INDEX 01 00:29:46
  TRACK 17 AUDIO
    TITLE "4:cjc085_0958"
    INDEX 01 00:30:18
  TRACK 18 AUDIO
    TITLE "2:cjc085_0959"
    INDEX 01 00:32:41
  TRACK 19 AUDIO
    TITLE "0:"
    INDEX 01 00:36:17
  TRACK 20 AUDIO
    TITLE "3:cjc085_0960"
    INDEX 01 00:36:60
  TRACK 21 AUDIO
    TITLE "0:"
    INDEX 01 00:40:07
  TRACK 22 AUDIO
    TITLE "4:cjc085_0961"
    INDEX 01 00:41:32
  TRACK 23 AUDIO
    TITLE "2:cjc085_0962"
    INDEX 01 00:44:18
  TRACK 24 AUDIO
    TITLE "0:"
    INDEX 01 00:48:49
  TRACK 25 AUDIO
    TITLE "3:cjc085_0963"
    INDEX 01 00:48:63
  TRACK 26 AUDIO
    TITLE "0:"
    INDEX 01 00:52:24
  TRACK 27 AUDIO
    TITLE "4:cjc085_0964"
    INDEX 01 00:53:64
  TRACK 28 AUDIO
    TITLE "2:cjc085_0965"
    INDEX 01 00:56:08
  TRACK 29 AUDIO
    TITLE "0:"
    INDEX 01 01:01:07
  TRACK 30 AUDIO
    TITLE "3:cjc085_0966"
    INDEX 01 01:01:68
  TRACK 31 AUDIO
    TITLE "0:"
    INDEX 01 01:05:60
  TRACK 32 AUDIO
    TITLE "4:cjc085_0967"
    INDEX 01 01:06:18
  TRACK 33 AUDIO
    TITLE "2:cjc085_0968"
    INDEX 01 01:08:56
  TRACK 34 AUDIO
    TITLE "0:"
    INDEX 01 01:11:21
  TRACK 35 AUDIO
    TITLE "3:cjc085_0969"
    INDEX 01 01:12:05
  TRACK 36 AUDIO
    TITLE "0:"
    INDEX 01 01:14:55
  TRACK 37 AUDIO
    TITLE "4:cjc085_0970"
    INDEX 01 01:15:68
  TRACK 38 AUDIO
    TITLE "2:cjc085_0971"
    INDEX 01 01:18:15
  TRACK 39 AUDIO
    TITLE "0:"
    INDEX 01 01:24:00
  TRACK 40 AUDIO
    TITLE "3:cjc085_0972"
    INDEX 01 01:24:39
  TRACK 41 AUDIO
    TITLE "0:"
    INDEX 01 01:27:42
  TRACK 42 AUDIO
    TITLE "4:cjc085_0973"
    INDEX 01 01:28:12
  TRACK 43 AUDIO
    TITLE "2:cjc085_0974"
    INDEX 01 01:30:38
  TRACK 44 AUDIO
    TITLE "0:"
    INDEX 01 01:34:67
  TRACK 45 AUDIO
    TITLE "3:cjc085_0975"
    INDEX 01 01:35:24
  TRACK 46 AUDIO
    TITLE "0:"
    INDEX 01 01:39:15
  TRACK 47 AUDIO
    TITLE "4:cjc085_0976"
    INDEX 01 01:39:72
  TRACK 48 AUDIO
    TITLE "0:"
    INDEX 01 01:41:63
  TRACK 49 AUDIO
    TITLE "4:cjc085_0977"
    INDEX 01 01:42:37
  TRACK 50 AUDIO
    TITLE "2:cjc085_0978"
    INDEX 01 01:45:38
  TRACK 51 AUDIO
    TITLE "0:"
    INDEX 01 01:50:21
  TRACK 52 AUDIO
    TITLE "3:cjc085_0979"
    INDEX 01 01:50:49
  TRACK 53 AUDIO
    TITLE "0:"
    INDEX 01 01:54:27
  TRACK 54 AUDIO
    TITLE "4:cjc085_0980"
    INDEX 01 01:55:32
  TRACK 55 AUDIO
    TITLE "2:cjc085_0981"
    INDEX 01 01:57:60
  TRACK 56 AUDIO
    TITLE "0:"
    INDEX 01 02:02:17
  TRACK 57 AUDIO
    TITLE "3:cjc085_0982"
    INDEX 01 02:02:73
  TRACK 58 AUDIO
    TITLE "0:"
    INDEX 01 02:07:35
  TRACK 59 AUDIO
    TITLE "4:cjc085_0983"
    INDEX 01 02:08:05
  TRACK 60 AUDIO
    TITLE "2:cjc085_0984"
    INDEX 01 02:10:45
  TRACK 61 AUDIO
    TITLE "0:"
    INDEX 01 02:14:51
  TRACK 62 AUDIO
    TITLE "3:cjc085_0985"
    INDEX 01 02:15:13
  TRACK 63 AUDIO
    TITLE "0:"
    INDEX 01 02:18:43
  TRACK 64 AUDIO
    TITLE "4:cjc085_0986"
    INDEX 01 02:19:21
  TRACK 65 AUDIO
    TITLE "2:cjc085_0987"
    INDEX 01 02:22:02
  TRACK 66 AUDIO
    TITLE "0:"
    INDEX 01 02:26:70
  TRACK 67 AUDIO
    TITLE "3:cjc085_0988"
    INDEX 01 02:27:20
  TRACK 68 AUDIO
    TITLE "0:"
    INDEX 01 02:31:71
  TRACK 69 AUDIO
    TITLE "4:cjc085_0989"
    INDEX 01 02:32:27
  TRACK 70 AUDIO
    TITLE "2:cjc085_0990"
    INDEX 01 02:34:66
  TRACK 71 AUDIO
    TITLE "0:"
    INDEX 01 02:40:37
  TRACK 72 AUDIO
    TITLE "3:cjc085_0991"
    INDEX 01 02:40:58
  TRACK 73 AUDIO
    TITLE "0:"
    INDEX 01 02:46:12
  TRACK 74 AUDIO
    TITLE "4:cjc085_0992"
    INDEX 01 02:47:21
  TRACK 75 AUDIO
    TITLE "2:cjc085_0993"
    INDEX 01 02:49:55
  TRACK 76 AUDIO
    TITLE "0:"
    INDEX 01 02:54:51
  TRACK 77 AUDIO
    TITLE "3:cjc085_0994"
    INDEX 01 02:55:19
  TRACK 78 AUDIO
    TITLE "0:"
    INDEX 01 02:59:22
  TRACK 79 AUDIO
    TITLE "4:cjc085_0995"
    INDEX 01 03:00:53
  TRACK 80 AUDIO
    TITLE "0:"
    INDEX 01 03:02:21
  TRACK 81 AUDIO
    TITLE "4:cjc085_0996"
    INDEX 01 03:03:42
  TRACK 82 AUDIO
    TITLE "2:cjc085_0997"
    INDEX 01 03:06:22
  TRACK 83 AUDIO
    TITLE "0:"
    INDEX 01 03:10:40
  TRACK 84 AUDIO
    TITLE "3:cjc085_0998"
    INDEX 01 03:11:22
  TRACK 85 AUDIO
    TITLE "0:"
    INDEX 01 03:13:69
  TRACK 86 AUDIO
    TITLE "4:cjc085_0999"
    INDEX 01 03:14:71
  TRACK 87 AUDIO
    TITLE "2:cjc085_1000"
    INDEX 01 03:17:56
  TRACK 88 AUDIO
    TITLE "0:"
    INDEX 01 03:25:26
  TRACK 89 AUDIO
    TITLE "3:cjc085_1001"
    INDEX 01 03:25:47
  TRACK 90 AUDIO
    TITLE "0:"
    INDEX 01 03:30:39
  TRACK 91 AUDIO
    TITLE "4:cjc085_1002"
    INDEX 01 03:31:52
  TRACK 92 AUDIO
    TITLE "2:cjc085_1003"
    INDEX 01 03:34:42
  TRACK 93 AUDIO
    TITLE "0:"
    INDEX 01 03:37:56
  TRACK 94 AUDIO
    TITLE "3:cjc085_1004"
    INDEX 01 03:37:64
  TRACK 95 AUDIO
    TITLE "0:"
    INDEX 01 03:40:25
  TRACK 96 AUDIO
    TITLE "4:cjc085_1005"
    INDEX 01 03:41:17
  TRACK 97 AUDIO
    TITLE "2:cjc085_1006"
    INDEX 01 03:44:00
  TRACK 98 AUDIO
    TITLE "0:"
    INDEX 01 03:48:35
  TRACK 99 AUDIO
    TITLE "3:cjc085_1007"
    INDEX 01 03:48:74
  TRACK 100 AUDIO
    TITLE "0:"
    INDEX 01 03:51:64
  TRACK 101 AUDIO
    TITLE "4:cjc085_1008"
    INDEX 01 03:53:69
  TRACK 102 AUDIO
    TITLE "0:"
    INDEX 01 03:55:48
  TRACK 103 AUDIO
    TITLE "4:cjc085_1009"
    INDEX 01 03:56:48
  TRACK 104 AUDIO
    TITLE "2:cjc085_1010"
    INDEX 01 03:59:38
  TRACK 105 AUDIO
    TITLE "0:"
    INDEX 01 04:02:01
  TRACK 106 AUDIO
    TITLE "3:cjc085_1011"
    INDEX 01 04:02:21
  TRACK 107 AUDIO
    TITLE "0:"
    INDEX 01 04:04:71
  TRACK 108 AUDIO
    TITLE "4:cjc085_1012"
    INDEX 01 04:05:66
  TRACK 109 AUDIO
    TITLE "2:cjc085_1013"
    INDEX 01 04:08:35
  TRACK 110 AUDIO
    TITLE "0:"
    INDEX 01 04:11:39
  TRACK 111 AUDIO
    TITLE "3:cjc085_1014"
    INDEX 01 04:11:47
  TRACK 112 AUDIO
    TITLE "0:"
    INDEX 01 04:14:69
  TRACK 113 AUDIO
    TITLE "4:cjc085_1015"
    INDEX 01 04:16:05
  TRACK 114 AUDIO
    TITLE "2:cjc085_1016"
    INDEX 01 04:18:57
  TRACK 115 AUDIO
    TITLE "0:"
    INDEX 01 04:22:14
  TRACK 116 AUDIO
    TITLE "3:cjc085_1017"
    INDEX 01 04:22:33
  TRACK 117 AUDIO
    TITLE "0:"
    INDEX 01 04:25:47
  TRACK 118 AUDIO
    TITLE "4:cjc085_1018"
    INDEX 01 04:26:45
  TRACK 119 AUDIO
    TITLE "2:cjc085_1019"
    INDEX 01 04:29:71
  TRACK 120 AUDIO
    TITLE "0:"
    INDEX 01 04:34:31
  TRACK 121 AUDIO
    TITLE "3:cjc085_1020"
    INDEX 01 04:34:58
  TRACK 122 AUDIO
    TITLE "0:"
    INDEX 01 04:38:60
  TRACK 123 AUDIO
    TITLE "4:cjc085_1021"
    INDEX 01 04:39:53
  TRACK 124 AUDIO
    TITLE "2:cjc085_1022"
    INDEX 01 04:42:26
  TRACK 125 AUDIO
    TITLE "0:"
    INDEX 01 04:45:58
  TRACK 126 AUDIO
    TITLE "3:cjc085_1023"
    INDEX 01 04:46:03
  TRACK 127 AUDIO
    TITLE "0:"
    INDEX 01 04:49:05
  TRACK 128 AUDIO
    TITLE "4:cjc085_1024"
    INDEX 01 04:50:02
  TRACK 129 AUDIO
    TITLE "2:cjc085_1025"
    INDEX 01 04:52:54
  TRACK 130 AUDIO
    TITLE "0:"
    INDEX 01 04:55:72
  TRACK 131 AUDIO
    TITLE "3:cjc085_1026"
    INDEX 01 04:56:17
  TRACK 132 AUDIO
    TITLE "0:"
    INDEX 01 04:59:54
  TRACK 133 AUDIO
    TITLE "4:cjc085_1027"
    INDEX 01 05:00:60
  TRACK 134 AUDIO
    TITLE "2:cjc085_1028"
    INDEX 01 05:03:36
  TRACK 135 AUDIO
    TITLE "0:"
    INDEX 01 05:07:42
  TRACK 136 AUDIO
    TITLE "3:cjc085_1029"
    INDEX 01 05:08:02
  TRACK 137 AUDIO
    TITLE "0:"
    INDEX 01 05:12:61
  TRACK 138 AUDIO
    TITLE "4:cjc085_1030"
    INDEX 01 05:13:17
  TRACK 139 AUDIO
    TITLE "2:cjc085_1031"
    INDEX 01 05:15:67
  TRACK 140 AUDIO
    TITLE "0:"
    INDEX 01 05:17:31
  TRACK 141 AUDIO
    TITLE "3:cjc085_1032"
    INDEX 01 05:18:12
  TRACK 142 AUDIO
    TITLE "0:"
    INDEX 01 05:20:70
  TRACK 143 AUDIO
    TITLE "4:cjc085_1033"
    INDEX 01 05:22:00
  TRACK 144 AUDIO
    TITLE "2:cjc085_1034"
    INDEX 01 05:24:56
  TRACK 145 AUDIO
    TITLE "0:"
    INDEX 01 05:29:67
  TRACK 146 AUDIO
    TITLE "3:cjc085_1035"
    INDEX 01 05:30:51
  TRACK 147 AUDIO
    TITLE "0:"
    INDEX 01 05:35:54
  TRACK 148 AUDIO
    TITLE "4:cjc085_1036"
    INDEX 01 05:36:16
  TRACK 149 AUDIO
    TITLE "2:cjc085_1037"
    INDEX 01 05:38:74
  TRACK 150 AUDIO
    TITLE "0:"
    INDEX 01 05:42:27
  TRACK 151 AUDIO
    TITLE "3:cjc085_1038"
    INDEX 01 05:43:24
  TRACK 152 AUDIO
    TITLE "0:"
    INDEX 01 05:47:00
  TRACK 153 AUDIO
    TITLE "4:cjc085_1039"
    INDEX 01 05:47:71
  TRACK 154 AUDIO
    TITLE "2:cjc085_1040"
    INDEX 01 05:50:55
  TRACK 155 AUDIO
    TITLE "0:"
    INDEX 01 05:53:54
  TRACK 156 AUDIO
    TITLE "3:cjc085_1041"
    INDEX 01 05:54:40
  TRACK 157 AUDIO
    TITLE "0:"
    INDEX 01 05:57:61
  TRACK 158 AUDIO
    TITLE "4:cjc085_1042"
    INDEX 01 05:59:58
  TRACK 159 AUDIO
    TITLE "0:"
    INDEX 01 06:02:47
  TRACK 160 AUDIO
    TITLE "4:cjc085_1043"
    INDEX 01 06:04:58
  TRACK 161 AUDIO
    TITLE "2:cjc085_1044"
    INDEX 01 06:09:47
  TRACK 162 AUDIO
    TITLE "0:"
    INDEX 01 06:14:09
  TRACK 163 AUDIO
    TITLE "3:cjc085_1045"
    INDEX 01 06:14:60
  TRACK 164 AUDIO
    TITLE "0:"
    INDEX 01 06:19:12
  TRACK 165 AUDIO
    TITLE "4:cjc085_1046"
    INDEX 01 06:19:61
  TRACK 166 AUDIO
    TITLE "2:cjc085_1047"
    INDEX 01 06:23:00
  TRACK 167 AUDIO
    TITLE "0:"
    INDEX 01 06:28:11
  TRACK 168 AUDIO
    TITLE "3:cjc085_1048"
    INDEX 01 06:28:40
  TRACK 169 AUDIO
    TITLE "0:"
    INDEX 01 06:32:72
  TRACK 170 AUDIO
    TITLE "4:cjc085_1049"
    INDEX 01 06:34:02
  TRACK 171 AUDIO
    TITLE "2:cjc085_1050"
    INDEX 01 06:36:40
  TRACK 172 AUDIO
    TITLE "0:"
    INDEX 01 06:40:38
  TRACK 173 AUDIO
    TITLE "3:cjc085_1051"
    INDEX 01 06:41:08
  TRACK 174 AUDIO
    TITLE "0:"
    INDEX 01 06:45:23
  TRACK 175 AUDIO
    TITLE "4:cjc085_1052"
    INDEX 01 06:46:74
  TRACK 176 AUDIO
    TITLE "2:cjc085_1053"
    INDEX 01 06:49:52
  TRACK 177 AUDIO
    TITLE "0:"
    INDEX 01 06:53:66
  TRACK 178 AUDIO
    TITLE "3:cjc085_1054"
    INDEX 01 06:54:05
  TRACK 179 AUDIO
    TITLE "0:"
    INDEX 01 06:57:34
  TRACK 180 AUDIO
    TITLE "4:cjc085_1055"
    INDEX 01 06:58:59
  TRACK 181 AUDIO
    TITLE "0:"
    INDEX 01 07:01:50
  TRACK 182 AUDIO
    TITLE "4:cjc085_1056"
    INDEX 01 07:03:27
  TRACK 183 AUDIO
    TITLE "2:cjc085_1057"
    INDEX 01 07:06:37
  TRACK 184 AUDIO
    TITLE "0:"
    INDEX 01 07:11:17
  TRACK 185 AUDIO
    TITLE "3:cjc085_1058"
    INDEX 01 07:11:72
  TRACK 186 AUDIO
    TITLE "0:"
    INDEX 01 07:16:04
  TRACK 187 AUDIO
    TITLE "4:cjc085_1059"
    INDEX 01 07:17:19
  TRACK 188 AUDIO
    TITLE "2:cjc085_1060"
    INDEX 01 07:20:00
  TRACK 189 AUDIO
    TITLE "0:"
    INDEX 01 07:24:13
  TRACK 190 AUDIO
    TITLE "3:cjc085_1061"
    INDEX 01 07:24:60
  TRACK 191 AUDIO
    TITLE "0:"
    INDEX 01 07:28:41
  TRACK 192 AUDIO
    TITLE "4:cjc085_1062"
    INDEX 01 07:29:48
  TRACK 193 AUDIO
    TITLE "2:cjc085_1063"
    INDEX 01 07:32:21
  TRACK 194 AUDIO
    TITLE "0:"
    INDEX 01 07:35:51
  TRACK 195 AUDIO
    TITLE "3:cjc085_1064"
    INDEX 01 07:36:23
  TRACK 196 AUDIO
    TITLE "0:"
    INDEX 01 07:39:35
  TRACK 197 AUDIO
    TITLE "4:cjc085_1065"
    INDEX 01 07:40:18
  TRACK 198 AUDIO
    TITLE "2:cjc085_1066"
    INDEX 01 07:43:11
  TRACK 199 AUDIO
    TITLE "0:"
    INDEX 01 07:45:39
  TRACK 200 AUDIO
    TITLE "3:cjc085_1067"
    INDEX 01 07:46:01
  TRACK 201 AUDIO
    TITLE "0:"
    INDEX 01 07:48:18
  TRACK 202 AUDIO
    TITLE "4:cjc085_1068"
    INDEX 01 07:49:29
  TRACK 203 AUDIO
    TITLE "2:cjc085_1069"
    INDEX 01 07:52:39
  TRACK 204 AUDIO
    TITLE "0:"
    INDEX 01 07:56:19
  TRACK 205 AUDIO
    TITLE "3:cjc085_1070"
    INDEX 01 07:57:29
  TRACK 206 AUDIO
    TITLE "0:"
    INDEX 01 08:01:15
  TRACK 207 AUDIO
    TITLE "4:cjc085_1071"
    INDEX 01 08:02:18
  TRACK 208 AUDIO
    TITLE "2:cjc085_1072"
    INDEX 01 08:04:56
  TRACK 209 AUDIO
    TITLE "0:"
    INDEX 01 08:07:27
  TRACK 210 AUDIO
    TITLE "3:cjc085_1073"
    INDEX 01 08:08:13
  TRACK 211 AUDIO
    TITLE "0:"
    INDEX 01 08:11:27
  TRACK 212 AUDIO
    TITLE "4:cjc085_1074"
    INDEX 01 08:12:58
  TRACK 213 AUDIO
    TITLE "2:cjc085_1075"
    INDEX 01 08:15:27
  TRACK 214 AUDIO
    TITLE "0:"
    INDEX 01 08:18:54
  TRACK 215 AUDIO
    TITLE "3:cjc085_1076"
    INDEX 01 08:19:05
  TRACK 216 AUDIO
    TITLE "0:"
    INDEX 01 08:21:58
  TRACK 217 AUDIO
    TITLE "4:cjc085_1077"
    INDEX 01 08:22:46
  TRACK 218 AUDIO
    TITLE "2:cjc085_1078"
    INDEX 01 08:25:43
  TRACK 219 AUDIO
    TITLE "0:"
    INDEX 01 08:28:33
  TRACK 220 AUDIO
    TITLE "3:cjc085_1079"
    INDEX 01 08:28:41
  TRACK 221 AUDIO
    TITLE "0:"
    INDEX 01 08:30:61
  TRACK 222 AUDIO
    TITLE "4:cjc085_1080"
    INDEX 01 08:31:49
  TRACK 223 AUDIO
    TITLE "2:cjc085_1081"
    INDEX 01 08:34:26
  TRACK 224 AUDIO
    TITLE "0:"
    INDEX 01 08:37:61
  TRACK 225 AUDIO
    TITLE "3:cjc085_1082"
    INDEX 01 08:37:71
  TRACK 226 AUDIO
    TITLE "0:"
    INDEX 01 08:40:62
  TRACK 227 AUDIO
    TITLE "4:cjc085_1083"
    INDEX 01 08:42:45
  TRACK 228 AUDIO
    TITLE "0:"
    INDEX 01 08:45:26
  TRACK 229 AUDIO
    TITLE "4:cjc085_1084"
    INDEX 01 08:46:47
  TRACK 230 AUDIO
    TITLE "2:cjc085_1085"
    INDEX 01 08:49:06
  TRACK 231 AUDIO
    TITLE "0:"
    INDEX 01 08:52:12
  TRACK 232 AUDIO
    TITLE "3:cjc085_1086"
    INDEX 01 08:53:13
  TRACK 233 AUDIO
    TITLE "0:"
    INDEX 01 08:56:00
  TRACK 234 AUDIO
    TITLE "4:cjc085_1087"
    INDEX 01 08:56:37
  TRACK 235 AUDIO
    TITLE "2:cjc085_1088"
    INDEX 01 08:58:66
  TRACK 236 AUDIO
    TITLE "0:"
    INDEX 01 09:03:33
  TRACK 237 AUDIO
    TITLE "3:cjc085_1089"
    INDEX 01 09:04:01
  TRACK 238 AUDIO
    TITLE "0:"
    INDEX 01 09:08:29
  TRACK 239 AUDIO
    TITLE "4:cjc085_1090"
    INDEX 01 09:08:72
  TRACK 240 AUDIO
    TITLE "2:cjc085_1091"
    INDEX 01 09:11:13
  TRACK 241 AUDIO
    TITLE "0:"
    INDEX 01 09:15:39
  TRACK 242 AUDIO
    TITLE "3:cjc085_1092"
    INDEX 01 09:15:60
  TRACK 243 AUDIO
    TITLE "0:"
    INDEX 01 09:19:68
  TRACK 244 AUDIO
    TITLE "4:cjc085_1093"
    INDEX 01 09:20:24
  TRACK 245 AUDIO
    TITLE "2:cjc085_1094"
    INDEX 01 09:23:03
  TRACK 246 AUDIO
    TITLE "0:"
    INDEX 01 09:28:41
  TRACK 247 AUDIO
    TITLE "3:cjc085_1095"
    INDEX 01 09:29:17
  TRACK 248 AUDIO
    TITLE "0:"
    INDEX 01 09:34:26
